# xmcd
#
# Track frame offsets: 
#        225
#        12789
#        22591
#        28362
#        34081
#        41723
#        54939
#        72742
#        87850
#        101479
#        111618
#        122542
#        134788
#        144263
#        152005
#        163896
#        177585
#        185399
#        196416
#        208229
#        217241
#        226636
#        237569
#        246737
#        258211
#        267248
#        280586
#        289030
#        299921
#        308776
#        320411
#        328716
#
# Disc length: 4536 seconds
#
# Revision: 0
# Processed by: cddbd v1.5.1PL0 Copyright (c) Steve Scherf et al.
# Submitted via: ExactAudioCopy v0.95a5
#
DISCID=f311b520
DTITLE=Beatles - Complete Edition CD 1
DYEAR=1958
DGENRE=Oldies
TTITLE0=In spite of all the danger
TTITLE1=That´ll be the day
TTITLE2=Cayenne
TTITLE3=Hallelujah, I love her so
TTITLE4=You´ll be mine
TTITLE5=If you love me, baby
TTITLE6=Nobody´s child
TTITLE7=When the saints go marching in
TTITLE8=Why
TTITLE9=Ain´t she sweet
TTITLE10=Cry for a shadow
TTITLE11=My bonnie
TTITLE12=Sweet Georgia brown
TTITLE13=Hello little girl
TTITLE14=Like dreamers do
TTITLE15=Searchin´
TTITLE16=The sheik of araby
TTITLE17=Three cool cats
TTITLE18=Besame mucho
TTITLE19=How do you do it
TTITLE20=P.S. I love you
TTITLE21=Ask me why
TTITLE22=Please please me
TTITLE23=Keep your hands off my baby
TTITLE24=A taste of honey
TTITLE25=Anna (Go to him)
TTITLE26=Boys
TTITLE27=Chains
TTITLE28=Do you want to know a secret
TTITLE29=I saw her standing there
TTITLE30=There´s a place
TTITLE31=Twist and shout
EXTD=
EXTT0=
EXTT1=
EXTT2=
EXTT3=
EXTT4=
EXTT5=
EXTT6=
EXTT7=
EXTT8=
EXTT9=
EXTT10=
EXTT11=
EXTT12=
EXTT13=
EXTT14=
EXTT15=
EXTT16=
EXTT17=
EXTT18=
EXTT19=
EXTT20=
EXTT21=
EXTT22=
EXTT23=
EXTT24=
EXTT25=
EXTT26=
EXTT27=
EXTT28=
EXTT29=
EXTT30=
EXTT31=
PLAYORDER=
